<svg id="Layer_1" data-name="Layer 1" xmlns="http://www.w3.org/2000/svg" xmlns:xlink="http://www.w3.org/1999/xlink" viewBox="0 0 1040 400"><defs><style>.cls-1,.cls-10,.cls-11,.cls-22,.cls-23{fill:none;}.cls-2{fill:#ffc95c;}.cls-3{fill:#dfe3e8;}.cls-12,.cls-27,.cls-4{fill:#fff;}.cls-4{opacity:0.54;}.cls-5{fill:#c4cdd5;}.cls-6{fill:#f4f6f8;}.cls-7{fill:#a0acb7;}.cls-8{fill:#ef7457;}.cls-9{fill:#f9fafb;}.cls-10{stroke:#ef7457;}.cls-10,.cls-11,.cls-22,.cls-23{stroke-linecap:round;stroke-miterlimit:10;stroke-width:3px;}.cls-11{stroke:#72c260;}.cls-13{clip-path:url(#clip-path);}.cls-14{fill:#454f5b;}.cls-15{fill:#ffd88b;}.cls-16{fill:#c0dfff;}.cls-17{fill:#6cd9be;}.cls-18{fill:#ec5632;}.cls-19{fill:#43a0ff;}.cls-20{fill:#f2937c;}.cls-21{clip-path:url(#clip-path-2);}.cls-22{stroke:#637381;}.cls-23{stroke:#919eab;}.cls-24{font-size:26.81px;font-family:AvertaOP-Bold, Averta OP;font-weight:700;}.cls-24,.cls-25{fill:#919eab;}.cls-26{fill:#91cf83;}.cls-27{fill-rule:evenodd;}</style><clipPath id="clip-path"><path class="cls-1" d="M520.91,231.16h-63.3a19.57,19.57,0,0,1-16.95-29.36L472.31,147,504,92.16a19.57,19.57,0,0,1,33.9,0L569.51,147l31.65,54.82a19.58,19.58,0,0,1-17,29.36Z"/></clipPath><clipPath id="clip-path-2"><circle class="cls-2" cx="501.29" cy="103.74" r="24.22"/></clipPath></defs><rect class="cls-3" x="1" width="1039.45" height="400"/><path class="cls-4" d="M226.82,117H432.3a15.14,15.14,0,0,1,15.14,15.14V271.3a0,0,0,0,1,0,0H211.68a0,0,0,0,1,0,0V132.1A15.14,15.14,0,0,1,226.82,117Z"/><rect class="cls-5" x="230.14" y="128.02" width="32.48" height="32.48" rx="6.64"/><rect class="cls-5" x="230.14" y="231.76" width="32.48" height="32.48" rx="6.64"/><rect class="cls-6" x="211.68" y="169.35" width="235.76" height="53.37"/><rect class="cls-7" x="225.98" y="175.03" width="42.03" height="42.03" rx="8.59"/><path class="cls-8" d="M266.68,222.73H255.62a3.42,3.42,0,0,1-3-5.13l5.53-9.58,5.53-9.58a3.42,3.42,0,0,1,5.92,0l5.53,9.58,5.53,9.58a3.42,3.42,0,0,1-3,5.13Z"/><rect class="cls-9" x="265.05" y="204.57" width="3.26" height="9.41" rx="1.63"/><circle class="cls-9" cx="266.68" cy="216.58" r="1.63"/><rect class="cls-8" x="312.91" y="136.75" width="37.34" height="7.51" rx="3.75"/><rect class="cls-5" x="337.24" y="148.77" width="37.34" height="7.51" rx="3.75"/><rect class="cls-8" x="309.43" y="189" width="76.9" height="15.46" rx="7.73"/><rect class="cls-5" x="312.91" y="148.77" width="20.11" height="7.51" rx="3.75"/><rect class="cls-8" x="309.43" y="250.49" width="37.34" height="7.51" rx="3.75"/><rect class="cls-5" x="309.43" y="237.18" width="20.11" height="7.51" rx="3.75"/><rect class="cls-5" x="335.12" y="237.18" width="27.62" height="7.51" rx="3.75"/><line class="cls-10" x1="134.59" y1="271.96" x2="410.91" y2="271.96"/><line class="cls-11" x1="631.75" y1="272.82" x2="908.07" y2="272.82"/><path class="cls-4" d="M607.81,117H813.28a15.14,15.14,0,0,1,15.14,15.14V271.3a0,0,0,0,1,0,0H592.67a0,0,0,0,1,0,0V132.1A15.14,15.14,0,0,1,607.81,117Z"/><polygon class="cls-5" points="520.91 158.44 410.91 219.44 410.91 331.44 520.91 331.44 630.91 331.44 630.91 219.44 520.91 158.44"/><polygon class="cls-12" points="478.98 282.05 410.91 219.75 410.91 331.44 427.74 331.44 478.98 282.05"/><polygon class="cls-12" points="562.84 282.05 630.91 219.75 630.91 331.44 614.08 331.44 562.84 282.05"/><polygon class="cls-12" points="483.64 283.32 557.81 283.32 608.25 331.94 433.2 331.94 483.64 283.32"/><path class="cls-8" d="M520.91,231.16h-63.3a19.57,19.57,0,0,1-16.95-29.36L472.31,147,504,92.16a19.57,19.57,0,0,1,33.9,0L569.51,147l31.65,54.82a19.58,19.58,0,0,1-17,29.36Z"/><rect class="cls-9" x="511.58" y="127.25" width="18.66" height="53.83" rx="9.33"/><circle class="cls-9" cx="520.91" cy="195.95" r="9.33"/><g class="cls-13"><rect class="cls-14" x="575.47" y="206.56" width="109.54" height="79.28" rx="11.97"/><rect class="cls-14" x="383.23" y="199.93" width="109.54" height="79.28" rx="11.97"/><path class="cls-14" d="M394.52,199.93h87a11.29,11.29,0,0,1,11.29,11.29v4.53a0,0,0,0,1,0,0H383.23a0,0,0,0,1,0,0v-4.53A11.29,11.29,0,0,1,394.52,199.93Z"/><circle class="cls-8" cx="394.31" cy="207.99" r="3.1"/><circle class="cls-15" cx="403.3" cy="207.99" r="3.1"/><circle class="cls-16" cx="411.86" cy="207.99" r="3.1"/><rect class="cls-14" x="538.44" y="59.47" width="109.54" height="79.28" rx="11.97"/><path class="cls-14" d="M549.73,59.47h87A11.29,11.29,0,0,1,648,70.76v4.53a0,0,0,0,1,0,0H538.44a0,0,0,0,1,0,0V70.76A11.29,11.29,0,0,1,549.73,59.47Z"/><circle class="cls-8" cx="549.52" cy="67.53" r="3.1"/><circle class="cls-15" cx="558.51" cy="67.53" r="3.1"/><circle class="cls-17" cx="567.06" cy="67.53" r="3.1"/><rect class="cls-18" x="426.9" y="140.9" width="71.65" height="22.36" rx="11.18"/><circle class="cls-9" cx="439.5" cy="152.08" r="3.42"/><circle class="cls-9" cx="450.89" cy="152.08" r="3.42"/><circle class="cls-19" cx="462.27" cy="152.08" r="3.42"/><circle class="cls-20" cx="473.65" cy="152.08" r="3.42"/><circle class="cls-20" cx="485.03" cy="152.08" r="3.42"/><rect class="cls-18" x="541.63" y="149.93" width="85.42" height="26.66" rx="13.33"/><circle class="cls-20" cx="556.66" cy="163.26" r="4.08"/><circle class="cls-20" cx="570.23" cy="163.26" r="4.08"/><circle class="cls-20" cx="583.79" cy="163.26" r="4.08"/><circle class="cls-20" cx="597.36" cy="163.26" r="4.08"/><circle class="cls-20" cx="610.93" cy="163.26" r="4.08"/><circle class="cls-2" cx="501.29" cy="103.74" r="24.22"/><g class="cls-21"><circle class="cls-14" cx="501.29" cy="135.74" r="23.61"/><circle class="cls-14" cx="501.29" cy="99.88" r="9.05"/></g><path class="cls-2" d="M539.89,202.88c0-7.29,4.64-17.22,17.87-17.22,9.4,0,15.18,6.47,15.18,14.94,0,3.75-1.75,10.3-9.08,10.3a5.34,5.34,0,0,1-3.58-1.18,4.43,4.43,0,0,1-1.06-1.87h-.12a6.26,6.26,0,0,1-5.09,2.64c-4,0-6.72-3.09-6.72-7.73,0-3.38,2-9.53,7.7-9.53a5.21,5.21,0,0,1,4.64,2.61l.08,0,.29-2.24h5.25l-1.1,10.38c0,.41-.08.81-.08,1.06,0,1.42.48,1.87,1.42,1.87,2.24,0,3.5-3.91,3.5-6.23a11,11,0,0,0-11.27-11.36c-9.53,0-13.89,7.13-13.89,13.64,0,6.35,4.2,11.89,11.52,11.89a14,14,0,0,0,8-2.08L565,215.5a14.91,14.91,0,0,1-9.73,3.05C546.44,218.55,539.89,212.53,539.89,202.88Zm19.66-1.55c0-2.07-1.31-3.5-3-3.5a4.26,4.26,0,0,0-4,4.48c0,2.16,1.34,3.54,3.05,3.54A4.25,4.25,0,0,0,559.55,201.33Z"/><g id="qwFibN.tif"><path class="cls-2" d="M513.71,244.71c-13.2-2.6-23.46-10.2-32.59-19.53-7.93-8.1-13.24-17.66-15.11-29a13.86,13.86,0,0,1,3.68-12.33,33.57,33.57,0,0,1,6.68-5.22c2.61-1.63,4.07-1.11,5.63,1.43q3.58,5.85,7.14,11.73c1.27,2.11,1.22,3-.59,4.73-1.64,1.59-3.48,3-5.18,4.51-2.18,2-2.51,2.74-1.18,5.32a34.6,34.6,0,0,0,4.66,7.09,85.63,85.63,0,0,0,17.58,14.78c2.53,1.65,3.36,1.47,5.33-.88,1.36-1.62,2.59-3.33,4-4.9,1.75-2,2.74-2.09,5-.77q7,4.06,13.9,8.17v2.6c-2.07,5.47-5.63,9.48-11.32,11.34-1,.34-2.11.61-3.17.92Z"/></g></g><rect class="cls-9" x="511.58" y="127.25" width="18.66" height="53.83" rx="9.33"/><circle class="cls-9" cx="520.91" cy="195.95" r="9.33"/><line class="cls-22" x1="397.51" y1="331.44" x2="752.5" y2="331.44"/><line class="cls-22" x1="301.17" y1="331.44" x2="364.45" y2="331.44"/><line class="cls-23" x1="729.11" y1="180.03" x2="785.04" y2="180.03"/><line class="cls-23" x1="636.05" y1="180.03" x2="691.98" y2="180.03"/><text class="cls-24" transform="translate(698.6 177.94)">@</text><rect class="cls-25" x="640.77" y="222.76" width="139.55" height="17.99" rx="9"/><circle class="cls-26" cx="710.55" cy="231.16" r="22.1"/><path class="cls-27" d="M706.61,241.75l-7.36-7.19a1.56,1.56,0,0,1,0-2.32,1.77,1.77,0,0,1,2.44-.05l5.39,3.65a.73.73,0,0,0,1-.11l11.21-13.39a1.76,1.76,0,0,1,2.41-.32,1.57,1.57,0,0,1,.34,2.29l-12.86,17.23a1.78,1.78,0,0,1-1.24.64.32.32,0,0,1-.14,0A1.72,1.72,0,0,1,706.61,241.75Z"/><path class="cls-22" d="M398.24,331.44c-2.35.15-4-1.14-5.39-2.48l-6.75-6.69a7.16,7.16,0,0,0-10.13.05l-6.69,6.75a6.93,6.93,0,0,1-4.83,2.37"/></svg>