<svg xmlns="http://www.w3.org/2000/svg" height="193.085" width="228.104"><path d="M217.255 145.455a17.356 17.356 0 01-2.176-2.826 13.183 13.183 0 01-1.914-6.549 11.931 11.931 0 013.91 3.741c14.765-26 7.7-89.634-12.128-112.844-.026.248-.017.5-.046.749a23.645 23.645 0 01-2.9 8.844 25.3 25.3 0 01-.339-9.424 33.066 33.066 0 011.039-4.559 31.892 31.892 0 01.468-6.251c.634-4.6 1.5-10.9-1.111-12.626-2.78-1.847-9.151 2.769-13.368 5.821-4.26 3.071-6.6 4.654-8.461 4.139-7.384-1.944-34.282-1.7-59.257 1.558-23.573 3.072-79.622 12.452-92.6 20.32-1.677 1-4.339.161-9.277-1.591-3.444-1.21-8.128-2.865-11.354-2.865a3.933 3.933 0 00-3.122 1.056c-2.02 2.4.592 8.19 2.5 12.42 1.269 2.82 2.245 5.059 2.376 6.836.353.723.739 1.435 1.032 2.18a18.3 18.3 0 011.165 8 16.6 16.6 0 01-3.619-5.515c-11.722 27.778-1.1 88.18 19.512 109.756a21.657 21.657 0 011.178-4.544 11.173 11.173 0 011.771 7.239 18.5 18.5 0 01-.436 2.228 39.354 39.354 0 01-.471 5.807c-.634 4.977-1.42 11.17 1.574 12.754 3.409 1.79 9.294-1.745 14.022-4.6 3.856-2.324 6.642-4.011 8.826-3.573 6.928 1.4 40.342.07 74.971-5.067 31.3-4.649 62.6-12.819 67.659-15.478 1.957-1.03 5.118-.2 9.478.94 5.341 1.41 11.987 3.136 14.75.457 2.427-2.369-.074-8.086-2.083-12.683a61.174 61.174 0 01-1.569-3.85zM12.849 110.534a108.433 108.433 0 01-1.645-20.628 87.206 87.206 0 012.416-20.469 181.679 181.679 0 002.476 40.538 162.628 162.628 0 004.594 19.724c1.8 6.541 4.387 12.812 6.842 19.232a102.451 102.451 0 01-14.683-38.397zm10.622-1.207c-.773-7.564-1.717-15.071-3.016-22.521a163.863 163.863 0 00-5.6-22.061c7.292 13.556 10.275 29.089 11.892 44.228l2.092 22.754a266.938 266.938 0 003.12 22.6c-5.389-14.411-6.84-29.945-8.488-44.993zm189.921-51.02a130.152 130.152 0 014.932 22.7 114.874 114.874 0 01-2.987 46.064c.67-7.687 1.477-15.274 1.275-22.906a172.431 172.431 0 00-1.556-22.737 212.9 212.9 0 00-10.65-44.45 107.009 107.009 0 018.986 21.331zm-1.838 71.963a207.073 207.073 0 00-3.475-21.9c-1.579-7.2-3.373-14.356-5.13-21.576a157.523 157.523 0 01-3.951-22.05 68.152 68.152 0 011.257-22.346 101.057 101.057 0 001.247 22.033c1.217 7.237 2.9 14.4 4.652 21.6 3.439 14.354 6.575 29.313 5.4 44.241z" fill="#f0f6fc"/><path d="M61.72 98.589l20.727 15.95 16.217-20.512 20.723 15.949 16.222-20.513 20.725 15.949L172.557 84.9l20.727 15.949 10.009-12.655c-.114-.465-.228-.929-.341-1.4-1.276-5.512-2.527-11.081-3.335-16.736l-8.767 11.084-20.726-15.949-16.223 20.512-20.728-15.949-16.22 20.511-20.724-15.949L80.011 94.83 59.287 78.881 43.065 99.393 22.341 83.444l-.046.058c.317 1.215.6 2.405.826 3.549l.022.125a158.51 158.51 0 013.046 17.059l19.309 14.861z" fill="#c5a7d4"/><path d="M180.225 13.67c-2.745-.722-8.192-1.142-15.233-1.218l18.718 14.4 16.224-20.513 3.893 2.995c.013-2.534-.393-4.718-1.771-5.628-2.78-1.847-9.151 2.769-13.368 5.821-4.262 3.075-6.602 4.659-8.463 4.143z" fill="#f3783c"/><path d="M18.077 70.934l2.46-3.111 20.723 15.95L57.482 63.26l20.726 15.95 16.217-20.512 20.724 15.949 16.215-20.513 20.725 15.949 16.224-20.512 20.726 15.949 9.677-12.235a58.515 58.515 0 011.536-10.885q-.075 1.338-.109 2.671a187.22 187.22 0 011.725-9.094 25.917 25.917 0 01-.212-8.833c.025-.156.062-.31.089-.465l-15.138 19.139-20.727-15.949-16.223 20.513-20.728-15.95-16.22 20.512-20.724-15.95-16.218 20.512-20.725-15.949-16.221 20.512L18.098 48.12l-6.508 8.229c2.311 4.737 4.556 9.713 6.487 14.585z" fill="#cedd3e"/><path d="M220.277 152.751c-.465-1.172-.976-2.341-1.458-3.446a63.373 63.373 0 01-1.564-3.85 17.356 17.356 0 01-2.176-2.826 13.186 13.186 0 01-1.914-6.549c.141.08.255.174.389.258a55.447 55.447 0 01-.658-1.7l-13.569 17.156-20.727-15.949-16.223 20.513-20.727-15.95-16.22 20.512-20.725-15.95-16.217 20.512-20.724-15.948-16.221 20.512-20.724-15.949-.709.9a80.556 80.556 0 01-.453 7.877 12.579 12.579 0 01.87 5.649 18.5 18.5 0 01-.436 2.228 39.354 39.354 0 01-.471 5.807c-.09.706-.182 1.437-.267 2.175l3.9-4.93 13.2 10.162c3.223-1.925 5.646-3.219 7.588-2.829a41.577 41.577 0 006.361.487l9.792-12.383 15.012 11.553c3.123-.211 6.393-.461 9.786-.754l12.145-15.361 15.9 12.24q2.975-.406 5.971-.849 1.395-.207 2.788-.424l12.281-15.53 13.955 10.739c4.664-.973 9.1-1.962 13.208-2.93l9.785-12.373 9.467 7.285a43.874 43.874 0 006.175-2.245c1.957-1.03 5.118-.2 9.478.94.937.248 1.914.5 2.9.745l8.929-11.289z" fill="#fdbe2a"/><path d="M12.974 31.978a21.1 21.1 0 00-5.238-.886 3.933 3.933 0 00-3.122 1.056c-1.522 1.806-.413 5.542 1.043 9.085zM72.873 40.546l16.1-20.364c-11.334 1.977-23.328 4.3-33.8 6.746zM23.233 35.339l12.693 9.77 13.218-16.714c-9.379 2.382-16.951 4.833-20.778 7.153-1.128.675-2.722.501-5.133-.209zM89.226 20.134l20.588 15.846 16.221-20.513 20.726 15.949 15.008-18.977a340.786 340.786 0 00-40.8 2.786c-7.889 1.031-19.414 2.766-31.743 4.909z" fill="#f3783c"/><path d="M65.959 133.915l20.727 15.949 16.217-20.511 20.723 15.949 16.221-20.513 20.726 15.949 16.223-20.513 20.727 15.949 12.709-16.068a198.644 198.644 0 00-2.15-11.731c-.473-2.158-.97-4.312-1.475-6.464l-11.518 14.561-20.726-15.949-16.224 20.513-20.727-15.95-16.22 20.512-20.725-15.95L84.25 130.16l-20.724-15.949-16.222 20.513-19.576-15.067 1.109 12.072c.231 2.413.5 4.821.8 7.226l20.1 15.472z" fill="#85c3e9"/><path d="M217.075 139.821c14.765-26 7.7-89.634-12.128-112.844-.026.248-.017.5-.046.749a23.645 23.645 0 01-2.9 8.844 25.3 25.3 0 01-.339-9.424 33.066 33.066 0 011.039-4.559 31.892 31.892 0 01.468-6.251c.142-1.03.292-2.148.415-3.277-1.933 10.622-6.636 38.819-4.582 51.69a68.152 68.152 0 011.257-22.346 101.057 101.057 0 001.247 22.033c1.217 7.237 2.9 14.4 4.652 21.6 2.9 12.087 8.69 31.3-1.755 41.807-6.858 6.9-10.55 2.341-18.493 3.222-25.609 2.837-44.046 25.141-69.183 29.607-11.07 1.967-22.383 1.985-33.436 3.811-7.431 1.227-15.085 4.538-22.705 3.956-10.612-.812-29.464-13.1-30.163-25.253a93.421 93.421 0 001.538 11.143c-5.388-14.415-6.839-29.949-8.487-45-.773-7.564-1.717-15.071-3.016-22.521a163.863 163.863 0 00-5.6-22.061c.229.426.417.87.638 1.3-2.834-9.355-5.945-20.949-11.577-31.774-.143 2.846 1.725 7.028 3.2 10.3 1.269 2.82 2.245 5.059 2.376 6.836.353.723.739 1.435 1.032 2.18a18.3 18.3 0 011.165 8 16.6 16.6 0 01-3.619-5.515c-11.722 27.778-1.1 88.18 19.512 109.756a21.657 21.657 0 011.178-4.544 11.173 11.173 0 011.771 7.239 18.5 18.5 0 01-.436 2.228 39.354 39.354 0 01-.471 5.807c-.634 4.977-1.42 11.17 1.574 12.754 3.409 1.79 9.294-1.745 14.022-4.6 3.856-2.324 6.642-4.011 8.826-3.573 6.928 1.4 40.342.07 74.971-5.067 31.3-4.649 62.6-12.819 67.659-15.478 1.957-1.03 5.118-.2 9.478.94 5.341 1.41 11.987 3.136 14.75.457 2.427-2.369-.074-8.086-2.083-12.683a63.373 63.373 0 01-1.564-3.85 17.356 17.356 0 01-2.176-2.826 13.183 13.183 0 01-1.914-6.549 11.931 11.931 0 013.905 3.736zM12.849 110.534a108.433 108.433 0 01-1.645-20.628 87.206 87.206 0 012.416-20.469 181.679 181.679 0 002.476 40.538 162.628 162.628 0 004.594 19.724c1.8 6.541 4.387 12.812 6.842 19.232a102.451 102.451 0 01-14.683-38.397zm202.207-29.107a212.9 212.9 0 00-10.65-44.45 107.009 107.009 0 018.986 21.33 130.152 130.152 0 014.932 22.7 114.874 114.874 0 01-2.987 46.064c.67-7.687 1.477-15.274 1.275-22.906a172.431 172.431 0 00-1.556-22.731z" fill="#555556" opacity=".2"/><path d="M75.758 93.726c26.371 7.691 60.59-4.68 87.9-47.248-45.047 0-87.9 47.248-87.9 47.248zM72.713 114.834c42.3 11.853 76.665 21.742 104.134 6.359-26.371-23.072-104.134-6.359-104.134-6.359z" fill="#555556" opacity=".2"/><g fill="#3e4147"><path d="M219.756 141.834c15.861-27.253 7.919-96.026-13.681-118.676-.425-.721.045-4.121.354-6.367.8-5.776 1.79-12.961-2.559-15.832-4.671-3.071-11.573 1.906-17.116 5.9-2.089 1.506-4.948 3.573-5.685 3.624-8.508-2.246-37.361-1.545-60.526 1.475-16.041 2.092-78.991 11.737-93.77 20.718-.814.142-4.156-.966-6.586-1.822-6.451-2.279-14.478-5.1-18.093-.83-3.36 3.978-.38 10.584 2.013 15.9.934 2.073 2.344 5.2 2.159 5.961-14.359 27.891-2.559 96.143 20.336 117.756.482.708.042 4.2-.252 6.509-.759 5.981-1.705 13.43 3.307 16.076a7.7 7.7 0 003.66.863c4.391 0 9.394-3.013 13.6-5.55 2.218-1.332 5.611-3.315 6.48-3.167 7.149 1.448 41.134.154 76.1-5.042 30.711-4.558 62.854-12.734 68.706-15.812.853-.444 4.616.554 7.114 1.211 6.146 1.6 13.791 3.618 17.883-.38 4.064-3.953 1.056-10.836-1.362-16.36-.926-2.122-2.326-5.322-2.082-6.155zm1.146 20.158c-2.763 2.679-9.409.953-14.75-.457-4.359-1.139-7.521-1.97-9.478-.94-5.057 2.659-36.359 10.829-67.659 15.478-34.629 5.137-68.043 6.464-74.971 5.067-2.185-.438-4.97 1.249-8.826 3.573-4.729 2.858-10.613 6.393-14.022 4.6-2.994-1.584-2.208-7.777-1.574-12.754a39.354 39.354 0 00.471-5.807 18.5 18.5 0 00.436-2.228 11.173 11.173 0 00-1.771-7.239 21.657 21.657 0 00-1.178 4.544C6.965 144.253-3.653 83.851 8.068 56.073a16.6 16.6 0 003.619 5.515 18.3 18.3 0 00-1.165-8c-.293-.745-.68-1.457-1.032-2.18-.131-1.777-1.107-4.016-2.376-6.836-1.909-4.23-4.521-10.025-2.5-12.42a3.933 3.933 0 013.122-1.056c3.226 0 7.909 1.655 11.354 2.865 4.938 1.752 7.6 2.595 9.277 1.591 12.979-7.868 69.028-17.248 92.6-20.32 24.975-3.257 51.873-3.5 59.257-1.558 1.861.515 4.2-1.068 8.461-4.139 4.217-3.052 10.588-7.668 13.368-5.821 2.614 1.726 1.745 8.023 1.111 12.626a31.892 31.892 0 00-.468 6.251 33.066 33.066 0 00-1.039 4.559 25.3 25.3 0 00.339 9.424 23.645 23.645 0 002.9-8.844c.029-.247.02-.5.046-.749 19.827 23.21 26.893 86.848 12.128 112.844a11.931 11.931 0 00-3.91-3.741 13.183 13.183 0 001.914 6.549 17.356 17.356 0 002.176 2.826 64.698 64.698 0 001.564 3.85c2.014 4.593 4.515 10.31 2.088 12.679z"/><path d="M26.746 108.975c-1.616-15.139-4.6-30.672-11.892-44.228a163.863 163.863 0 015.6 22.061c1.3 7.45 2.242 14.957 3.016 22.521 1.648 15.053 3.1 30.587 8.487 45a265.143 265.143 0 01-3.12-22.6zM16.096 109.977a181.679 181.679 0 01-2.476-40.538 87.206 87.206 0 00-2.416 20.469 108.433 108.433 0 001.645 20.628 102.451 102.451 0 0014.683 38.4c-2.455-6.42-5.041-12.691-6.842-19.232a162.628 162.628 0 01-4.594-19.727zM201.502 64.434a101.057 101.057 0 01-1.247-22.033 68.152 68.152 0 00-1.257 22.346 157.523 157.523 0 003.951 22.05c1.757 7.22 3.551 14.376 5.13 21.576a207.073 207.073 0 013.475 21.9c1.176-14.928-1.961-29.887-5.4-44.234-1.751-7.205-3.435-14.366-4.652-21.605zM216.611 104.166c.2 7.632-.605 15.219-1.275 22.906a114.874 114.874 0 002.987-46.064 130.152 130.152 0 00-4.932-22.7 107.009 107.009 0 00-8.986-21.33 212.9 212.9 0 0110.65 44.45 172.431 172.431 0 011.556 22.738z"/></g></svg>
